<?xml version="1.0" standalone="no"?>
<!DOCTYPE svg PUBLIC "-//W3C//DTD SVG 20010904//EN"
 "http://www.w3.org/TR/2001/REC-SVG-20010904/DTD/svg10.dtd">
<svg version="1.0" xmlns="http://www.w3.org/2000/svg"
 width="321.000000pt" height="84.000000pt" viewBox="0 0 321.000000 84.000000"
 preserveAspectRatio="xMidYMid meet">

<g transform="translate(0.000000,84.000000) scale(0.100000,-0.100000)"
fill="#000000" stroke="none">
<path d="M277 705 c-9 -8 -41 -92 -74 -186 -32 -95 -63 -186 -70 -203 -7 -17
-12 -59 -12 -93 -1 -85 10 -95 108 -91 75 3 76 4 92 35 25 51 40 64 67 61 19
-2 28 -12 39 -43 7 -21 19 -43 26 -47 16 -10 308 -10 324 0 7 4 47 86 88 182
42 96 81 180 87 187 6 7 30 13 54 13 l44 0 0 -179 c0 -150 3 -182 16 -195 19
-20 163 -23 182 -4 8 8 12 62 12 176 0 163 7 202 35 202 12 0 15 -16 15 -78 0
-103 20 -168 70 -224 58 -66 125 -91 232 -86 57 3 97 10 128 25 41 20 46 20
54 5 5 -9 14 -20 20 -24 6 -4 101 -8 211 -8 165 0 205 3 223 15 19 14 24 14
51 0 40 -20 198 -21 247 0 32 13 37 13 51 0 10 -11 37 -15 93 -15 88 0 100 8
100 72 0 65 15 66 56 2 20 -32 42 -62 48 -66 6 -4 43 -8 83 -8 108 0 103 -16
103 295 0 226 -2 266 -16 279 -11 12 -35 16 -89 16 -94 0 -105 -10 -105 -92
l0 -61 -19 24 c-10 13 -28 43 -40 66 -11 23 -30 47 -40 53 -11 5 -81 10 -155
10 -185 0 -176 10 -176 -204 0 -110 -4 -167 -11 -172 -23 -14 -29 24 -29 179
0 193 -2 197 -109 197 -103 0 -101 5 -101 -216 l0 -185 -92 3 -93 3 -5 188
c-4 152 -8 190 -20 197 -8 5 -47 10 -87 10 -73 0 -103 -13 -103 -45 0 -10 -14
-7 -52 13 -39 20 -70 28 -126 31 -84 4 -132 -7 -186 -44 l-37 -25 -11 30 c-6
17 -19 32 -31 35 -16 4 -477 2 -562 -3 -5 0 -49 2 -96 4 -136 8 -146 -15 -74
-177 25 -56 45 -108 45 -115 0 -18 -32 -84 -41 -84 -3 0 -30 69 -59 153 -57
162 -76 208 -94 219 -6 4 -48 8 -93 8 -59 0 -86 -4 -96 -15z m241 -272 c45
-131 82 -242 82 -246 0 -4 -25 -7 -56 -5 l-57 3 -14 48 -14 47 -69 0 -69 0 13
43 c11 40 14 42 54 45 38 3 42 6 36 24 -3 11 -14 49 -25 85 -10 36 -20 67 -22
69 -2 2 -23 -64 -46 -146 -24 -83 -48 -150 -52 -150 -5 0 -9 -15 -10 -32 -1
-31 -1 -32 -9 -8 -4 14 -9 18 -9 10 -1 -11 -3 -12 -9 -3 -4 7 -13 9 -21 4 -16
-11 -5 -34 12 -25 7 4 8 3 4 -2 -5 -5 -20 -9 -35 -10 -25 -1 -27 2 -28 36 0
32 2 37 20 33 20 -4 20 -4 3 10 -17 14 -17 17 3 56 12 22 19 45 15 51 -3 5 -1
10 4 10 6 0 11 7 11 15 0 8 5 15 10 15 6 0 10 5 10 11 0 5 -4 8 -9 5 -5 -4 9
50 32 119 l42 125 60 0 60 0 83 -237z m237 196 l19 -40 -31 -62 -31 -62 -37
80 c-63 136 -64 125 4 125 l58 0 18 -41z m193 32 c-30 -77 -83 -189 -89 -186
-4 3 -6 -1 -5 -8 0 -6 -6 -29 -13 -49 -13 -32 -18 -37 -38 -32 -26 7 -30 -7
-8 -29 8 -8 11 -18 7 -22 -4 -4 -7 -10 -7 -13 0 -4 -13 -37 -29 -74 l-29 -68
-58 0 -57 0 106 245 106 245 59 0 c32 0 57 -4 55 -9z m209 -12 c-4 -15 -2 -19
9 -15 16 6 19 -10 3 -19 -6 -5 -4 -12 8 -20 16 -12 8 -14 -57 -13 -71 1 -110
15 -110 39 0 5 8 5 18 2 15 -6 15 -5 3 10 -7 9 -17 14 -22 11 -5 -3 -6 1 -3 9
4 11 26 15 81 16 72 1 75 1 70 -20z m91 10 c-2 -6 -7 -10 -12 -9 -5 1 -14 -9
-20 -21 -6 -12 -18 -25 -26 -27 -12 -4 -13 -3 -3 10 7 8 9 19 5 23 -4 5 -1 5
7 0 9 -5 12 -4 7 3 -4 7 -14 12 -22 12 -8 0 -14 5 -14 10 0 6 18 10 41 10 25
0 39 -4 37 -11z m42 -11 c0 -13 -23 -5 -28 10 -2 7 2 10 12 6 9 -3 16 -11 16
-16z m290 -17 c0 -36 -4 -42 -40 -62 -39 -22 -70 -75 -70 -120 0 -19 -4 -20
-36 -14 -30 5 -36 4 -31 -9 3 -8 1 -17 -6 -19 -7 -3 2 -4 20 -2 18 2 37 6 43
10 5 3 10 -3 10 -14 0 -12 -6 -21 -12 -22 -10 0 -10 -2 0 -6 20 -8 52 -81 38
-87 -6 -3 -2 -4 10 -1 12 3 27 -1 34 -10 8 -10 9 -15 1 -15 -6 0 -11 -5 -11
-10 0 -6 10 -8 23 -5 16 4 24 2 24 -7 0 -8 -7 -15 -16 -16 -30 -3 -46 -8 -57
-15 -7 -4 -14 1 -17 13 -3 12 1 24 11 29 9 5 13 13 9 17 -5 5 -12 3 -16 -4 -5
-8 -15 -10 -27 -5 -17 6 -18 5 -4 -11 13 -17 12 -18 -5 -14 -13 2 -19 10 -17
23 2 11 1 17 -3 13 -9 -8 -27 8 -43 39 -10 19 -10 21 5 19 10 -2 32 3 48 10
l30 12 -28 11 c-16 6 -40 11 -53 11 -14 0 -23 4 -19 10 3 5 1 17 -6 28 -8 13
-8 32 0 74 19 90 64 144 147 173 59 21 64 20 64 -24z m123 12 c15 -7 25 -18
22 -23 -3 -6 1 -7 9 -4 11 4 25 -9 46 -42 32 -51 35 -79 10 -80 -8 0 -26 -4
-39 -8 -18 -6 -21 -10 -10 -17 23 -15 39 -10 32 9 -5 14 -3 15 7 5 10 -9 17
-10 27 -2 10 9 13 6 11 -12 -2 -24 -3 -25 -75 -20 -6 1 -21 21 -33 46 -22 46
-62 85 -86 85 -10 0 -14 14 -14 46 l0 46 33 -7 c17 -4 45 -14 60 -22z m247 7
c0 -11 -6 -20 -12 -20 -10 0 -10 -2 0 -9 10 -6 13 -35 11 -110 -1 -87 -4 -101
-18 -99 -9 2 -15 -3 -13 -10 1 -7 -5 -15 -13 -18 -8 -3 -12 -11 -8 -18 4 -6
-1 -4 -12 4 -10 8 -20 14 -22 13 -1 -2 -9 -3 -15 -3 -9 0 -8 4 2 10 10 6 11
10 3 10 -10 0 -13 34 -13 135 l0 135 55 0 c48 0 55 -2 55 -20z m347 6 c-11 -8
-14 -17 -8 -20 5 -4 12 -2 16 4 4 7 13 7 26 -1 19 -9 20 -20 18 -165 -1 -160
3 -177 42 -189 20 -7 28 -55 9 -55 -5 0 -10 10 -10 23 0 13 -9 26 -24 33 -21
10 -25 9 -29 -8 -4 -15 -2 -17 7 -8 10 7 17 6 25 -4 13 -16 -1 -32 -19 -21 -5
3 -10 4 -10 0 0 -3 12 -10 26 -15 15 -6 22 -14 18 -22 -5 -8 -2 -9 9 -5 11 4
17 1 17 -8 0 -19 -4 -19 -65 3 -41 15 -55 26 -75 62 -23 42 -25 56 -27 199 -3
144 -2 153 15 149 12 -3 19 0 19 9 0 8 -6 12 -14 9 -7 -3 -13 -1 -13 3 0 5 -3
16 -6 25 -5 13 1 16 32 16 35 -1 37 -2 21 -14z m53 -6 c0 -5 -7 -7 -15 -4 -8
4 -12 10 -9 15 6 11 24 2 24 -11z m159 -1 c-16 -10 -23 -4 -14 10 3 6 11 8 17
5 6 -4 5 -9 -3 -15z m87 5 c-3 -9 -6 -20 -6 -25 0 -4 -6 -6 -13 -3 -8 3 -14
-1 -14 -9 0 -9 7 -12 18 -10 15 4 17 -8 18 -131 2 -147 -7 -197 -45 -242 -20
-25 -25 -27 -35 -14 -9 13 -10 13 -5 -2 4 -13 -4 -20 -32 -28 -48 -13 -52 -13
-52 5 0 8 5 15 12 15 9 0 9 3 0 12 -21 21 -13 52 18 70 l30 17 0 160 c0 146 2
161 19 170 10 6 21 7 25 4 3 -3 6 1 6 10 0 12 9 17 31 17 24 0 30 -3 25 -16z
m187 -64 l45 -80 -40 -11 c-29 -7 -44 -7 -51 0 -8 8 -5 11 8 12 43 3 48 4 52
17 5 14 -23 17 -31 3 -13 -20 -50 5 -82 55 -54 84 -54 84 4 84 l49 0 46 -80z
m247 -142 c0 -122 -1 -220 -3 -217 -3 2 -25 38 -50 80 -40 67 -46 82 -48 142
-1 37 1 70 4 74 11 10 8 25 -3 18 -6 -4 -10 18 -10 59 l0 66 54 0 55 0 1 -222z
m-1717 185 c-4 -11 -3 -14 5 -9 8 5 12 -1 12 -18 0 -25 -2 -26 -60 -26 -61 0
-69 5 -47 31 6 8 11 12 10 10 -3 -4 29 -30 37 -31 3 0 14 14 23 30 20 33 30
40 20 13z m-40 -7 c6 -16 -2 -28 -14 -20 -12 7 -11 34 0 34 5 0 11 -6 14 -14z
m1409 -97 c-4 -4 -17 -10 -29 -14 -22 -6 -23 -4 -23 57 l0 63 30 -50 c16 -27
26 -53 22 -56z m-1657 61 c4 -6 -7 -10 -25 -10 -18 0 -29 4 -25 10 3 6 15 10
25 10 10 0 22 -4 25 -10z m99 -41 c-4 -8 -1 -8 12 -1 36 18 74 -10 74 -57 0
-18 -7 -35 -17 -41 -17 -11 -17 -11 0 -6 16 5 17 1 12 -41 -3 -25 -7 -48 -8
-50 -2 -2 -16 8 -31 22 -27 25 -46 32 -46 18 0 -16 16 -31 35 -35 12 -2 19
-10 17 -21 -2 -9 2 -17 8 -17 6 0 8 4 5 10 -3 5 0 7 8 4 16 -6 18 -36 3 -47
-8 -6 -7 -10 2 -14 7 -3 12 -23 12 -49 l0 -44 -55 0 -55 0 0 80 c0 57 4 80 13
80 8 0 7 4 -3 10 -10 6 -11 10 -2 10 6 0 12 5 12 11 0 6 -6 7 -12 2 -7 -4 -5
5 5 20 15 23 15 27 2 27 -27 0 -15 138 13 140 2 0 0 -5 -4 -11z m516 -51 c31
-34 28 -109 -8 -149 -24 -26 -30 -29 -53 -21 -75 29 -56 192 22 192 10 0 27
-10 39 -22z m1076 -11 c4 -4 0 -7 -8 -7 -9 0 -31 -3 -49 -6 -32 -6 -33 -6 -14
9 20 16 57 18 71 4z m225 -165 c43 -73 79 -135 79 -137 0 -1 -19 -3 -42 -3
-28 -1 -46 5 -55 16 -20 26 -164 264 -161 267 2 1 19 6 38 12 43 12 38 18 141
-155z m-203 28 c2 -57 1 -119 -3 -137 -6 -34 -7 -34 -53 -31 l-47 3 -3 134 -3
134 36 -6 c21 -3 33 -2 30 4 -4 5 4 7 17 6 22 -4 23 -8 26 -107z m-932 64 c-3
-8 -1 -14 4 -14 4 0 7 -16 5 -35 -7 -80 -105 -175 -180 -175 -25 0 -34 14 -15
25 5 3 7 12 4 20 -4 9 10 29 34 51 23 20 48 54 56 75 15 36 18 39 37 29 11 -7
23 -10 25 -7 3 2 -9 10 -26 17 -40 17 -38 28 8 32 45 4 55 0 48 -18z m128 -39
c-4 -8 -2 -15 3 -15 5 0 10 -16 11 -35 2 -23 -2 -35 -10 -35 -9 0 -10 -3 -2
-8 18 -12 12 -76 -8 -80 -9 -2 -18 4 -21 13 -4 12 -5 12 -3 -2 0 -9 12 -20 26
-24 21 -7 19 -8 -10 -6 -29 2 -35 6 -34 24 1 13 -3 20 -7 17 -5 -3 -7 -10 -4
-15 4 -5 1 -9 -5 -9 -6 0 -8 -4 -5 -10 3 -6 1 -10 -4 -10 -6 0 -12 6 -12 13
-1 6 -2 19 -3 27 0 8 6 22 14 30 9 8 10 11 3 6 -8 -5 -15 -2 -19 9 -5 12 -1
21 12 28 17 10 17 11 -1 18 -19 7 -19 8 2 8 12 1 24 -5 27 -11 5 -10 7 -10 12
0 3 6 11 9 16 6 7 -4 8 -2 4 5 -4 6 -13 11 -19 10 -26 -3 -37 2 -47 24 -10 20
-10 20 3 5 19 -24 29 -23 55 7 25 28 34 32 26 10z m111 -116 c-4 -5 1 -9 9 -9
8 0 18 5 21 10 4 6 29 9 56 8 45 -3 49 -5 44 -23 -4 -11 -7 -27 -8 -36 -1 -10
-8 -14 -19 -11 -10 2 -18 -1 -18 -7 0 -6 -4 -11 -10 -11 -16 0 -7 24 15 38 19
13 19 13 -2 9 -13 -3 -23 -1 -23 4 0 5 -4 9 -9 9 -6 0 -8 -9 -6 -20 2 -11 0
-20 -6 -20 -8 0 -13 22 -10 42 0 4 -6 5 -14 1 -12 -4 -13 -8 -4 -19 10 -12 8
-13 -7 -8 -16 5 -16 3 3 -14 l22 -19 -49 -2 c-28 0 -50 4 -50 9 0 6 4 10 8 10
4 0 8 9 9 20 1 11 -2 20 -8 20 -5 0 -9 6 -9 13 0 7 15 13 35 14 20 1 33 -3 30
-8z m151 -77 c-11 -10 -15 4 -8 28 l7 25 3 -23 c2 -13 1 -26 -2 -30z m-646 18
c0 -5 -5 -10 -11 -10 -5 0 -7 5 -4 10 3 6 8 10 11 10 2 0 4 -4 4 -10z"/>
<path d="M695 640 c3 -5 8 -10 11 -10 2 0 4 5 4 10 0 6 -5 10 -11 10 -5 0 -7
-4 -4 -10z"/>
<path d="M888 623 c7 -3 16 -2 19 1 4 3 -2 6 -13 5 -11 0 -14 -3 -6 -6z"/>
<path d="M816 562 c-3 -5 1 -9 9 -9 8 0 12 4 9 9 -3 4 -7 8 -9 8 -2 0 -6 -4
-9 -8z"/>
<path d="M795 490 c3 -5 1 -10 -5 -10 -6 0 -9 -4 -5 -10 9 -14 34 0 28 16 -3
8 -9 14 -15 14 -5 0 -6 -4 -3 -10z"/>
<path d="M760 456 c0 -2 8 -10 18 -17 15 -13 16 -12 3 4 -13 16 -21 21 -21 13z"/>
<path d="M803 425 c0 -8 4 -15 9 -15 4 0 8 7 8 15 0 8 -4 15 -8 15 -5 0 -9 -7
-9 -15z"/>
<path d="M760 410 c0 -5 5 -10 10 -10 6 0 10 5 10 10 0 6 -4 10 -10 10 -5 0
-10 -4 -10 -10z"/>
<path d="M685 210 c3 -5 13 -10 21 -10 8 0 14 5 14 10 0 6 -9 10 -21 10 -11 0
-17 -4 -14 -10z"/>
<path d="M1900 620 c0 -5 5 -10 10 -10 6 0 10 5 10 10 0 6 -4 10 -10 10 -5 0
-10 -4 -10 -10z"/>
<path d="M2290 329 c0 -5 5 -7 10 -4 6 3 10 8 10 11 0 2 -4 4 -10 4 -5 0 -10
-5 -10 -11z"/>
<path d="M2510 394 c0 -8 5 -12 10 -9 6 3 10 10 10 16 0 5 -4 9 -10 9 -5 0
-10 -7 -10 -16z"/>
<path d="M2535 361 c-3 -5 -1 -12 5 -16 5 -3 10 1 10 9 0 18 -6 21 -15 7z"/>
<path d="M2500 296 c0 -2 7 -9 15 -16 13 -11 14 -10 9 4 -5 14 -24 23 -24 12z"/>
<path d="M2450 260 c0 -5 4 -10 9 -10 6 0 13 5 16 10 3 6 -1 10 -9 10 -9 0
-16 -4 -16 -10z"/>
<path d="M1110 440 c0 -5 5 -10 11 -10 5 0 7 5 4 10 -3 6 -8 10 -11 10 -2 0
-4 -4 -4 -10z"/>
<path d="M1140 431 c0 -14 29 -21 36 -9 4 7 3 8 -4 4 -7 -4 -12 -2 -12 3 0 6
-4 11 -10 11 -5 0 -10 -4 -10 -9z"/>
<path d="M1705 309 c-4 -6 -4 -13 -1 -16 3 -4 6 -1 6 6 0 7 5 9 12 5 7 -4 8
-3 4 4 -9 15 -13 15 -21 1z"/>
<path d="M1915 340 c3 -5 8 -10 11 -10 2 0 4 5 4 10 0 6 -5 10 -11 10 -5 0 -7
-4 -4 -10z"/>
</g>
</svg>
